<?xml version="1.0" encoding="utf-8"?>
<!-- Generator: Adobe Illustrator 23.0.3, SVG Export Plug-In . SVG Version: 6.00 Build 0)  -->
<svg version="1.1" id="Layer_1" xmlns="http://www.w3.org/2000/svg" xmlns:xlink="http://www.w3.org/1999/xlink" x="0px" y="0px"
	 viewBox="0 0 612 792" style="enable-background:new 0 0 612 792;" xml:space="preserve">
<style type="text/css">
	.st0{fill:#43BB75;}
	.st1{fill:#FEB601;}
	.st2{fill:#FEDB84;}
	.st3{fill:#A3DDBB;}
	.st4{fill:#FEDA80;}
	.st5{fill:#A1DCB9;}
	.st6{fill:#B3E4C7;}
</style>
<g>
	<g>
		<g>
			<path class="st0" d="M304,636.18c-47.1-28.31-91.25-60.64-132.36-97.12c-9.29-8.24-9.32-11.16-0.68-19.81
				c20.27-20.27,40.52-40.56,60.82-60.79c4.73-4.72,7.7-9.97,6.41-16.94c-2.26-12.24-16.02-18.08-26.28-11.04
				c-1.9,1.31-3.57,3-5.21,4.64c-20.29,20.25-40.55,40.53-60.82,60.79c-1.18,1.18-2.3,2.46-3.64,3.41
				c-3.59,2.52-7.23,2.29-10.58-0.45c-3.11-2.55-3.83-7.44-1.59-10.9c0.98-1.51,2.35-2.79,3.64-4.08
				c26.74-26.76,53.44-53.56,80.28-80.22c5.35-5.31,7.65-11.32,5.61-18.55c-3.22-11.38-17.27-15.73-26.69-8.4
				c-1.57,1.22-2.94,2.71-4.35,4.12c-24.53,24.5-49.04,49-73.57,73.5c-1.18,1.18-2.32,2.43-3.66,3.39
				c-3.55,2.54-8.61,2.06-11.35-1.12c-3-3.48-3.04-7.27-0.41-10.98c1.05-1.48,2.44-2.73,3.74-4.02c28.98-29,58-57.96,86.95-86.99
				c10.16-10.19,6.47-25.94-6.81-29.23c-7.34-1.82-13.23,0.99-18.44,6.22c-24.69,24.81-49.48,49.51-74.24,74.25
				c-1.06,1.06-2.07,2.18-3.22,3.14c-3.6,3.03-8.69,2.93-11.79-0.15c-3.28-3.26-3.48-8.03-0.37-11.75c1.28-1.53,2.79-2.86,4.21-4.27
				c14.73-14.73,29.48-29.44,44.18-44.2c6.12-6.15,7.53-13.03,4.33-20.02c-4.86-10.62-18.52-13.36-27.22-5.11
				c-9.3,8.83-18.22,18.08-27.31,27.13c-1.06,1.06-2.08,2.18-3.24,3.11c-5.71,4.54-12.56,2.43-14.35-4.67
				c-2.61-10.35-3.69-20.97-4.88-31.55c-0.14-1.21,0.53-2.75-1.11-3.51c0-1.33,0-2.67,0-4c1.09-2.02,0.25-4.21,0.52-6.3
				c-0.3-3.23,0.63-6.52-0.52-9.7c0-2.67,0-5.33,0-8c1.26-8,0.99-16.15,2.72-24.12c5.74-26.45,16.51-50.44,36.42-69.15
				c22.64-21.26,49.49-33.87,81.01-35.21c0.67-0.03,1.32-0.01,1.85-0.52c1.33,0,2.67,0,4,0c4,0.85,8,0.85,12,0c1.33,0,2.67,0,4,0
				c4.53,1,9.2,0.59,13.74,1.4c27.68,4.94,51.99,16.78,73.28,35.16c10.04,8.67,18.41,18.67,25.89,29.52
				c1.32,1.91,2.68,3.82,3.23,6.16c0.49,7.9,0.81,15.79-0.16,23.66c-1.07,2.38-2.88,1.74-4.65,1.07c-3.33-1.27-5.14-3.99-6.83-6.97
				c-14.34-25.25-33.79-45.32-60.02-58.3c-44.35-21.94-96.58-15.2-133.38,17.91c-12.01,10.8-20.04,24.77-25.52,40.12
				c-8.35,23.4-9.78,47.47-7.47,71.94c0.23,2.41-0.14,4.95,1.09,7.57c6.73-5.95,12.38-12.5,19.07-18
				c16.48-13.54,44.11-9.09,53.88,11.17c2.21,4.59,2.58,4.63,6.14,0.9c8.18-8.56,17.68-13.87,29.93-13.65
				c22.66,0.4,39.2,22.23,32.96,44.01c-0.97,3.39-0.63,4.91,2.92,6.32c19.87,7.91,28.2,30.1,18.51,49.26
				c-1.69,3.34-1.97,4.66,2.07,6.4c19.54,8.43,26.43,34.11,14.17,51.64c-2.11,3.02-4.55,5.73-7.16,8.33
				c-17.34,17.3-34.66,34.63-51.97,51.96c-3.82,3.83-3.74,4.35,0.24,7.77c30.11,25.89,61.78,49.71,95.02,71.42
				c5.02,3.28,10.14,6.4,15.23,9.58c2.39,1.49,4.97,2.84,5.87,5.86c0.26,5.69,1.67,11.45-1.11,16.93
				C306,636.16,305,636.17,304,636.18z"/>
		</g>
		<path class="st1" d="M307,253.51c0-8.44,0-16.89,0-25.33c1.94-7.38,7.29-12.62,11.91-18.16c19.75-23.67,44.77-39.4,74.23-48.27
			c9.44-2.84,19.14-3.77,28.86-4.74c1,0,2,0,3,0c4.33,0.83,8.67,0.83,13,0c1.33,0,2.67,0,4,0c10.36,1.11,20.69,2.02,30.75,5.31
			c48.95,15.98,77.67,49.76,88.52,99.57c1.81,8.3,1.51,16.78,2.73,25.12c0,2.33,0,4.67,0,7c-0.82,3.67-0.82,7.33,0,11c0,3,0,6,0,9
			c-2.46,5.89-1.6,12.3-2.91,18.38c-1.08,5.04-1.62,10.19-2.74,15.22c-2.07,9.26-9.32,11.44-16.1,4.81
			c-9.53-9.32-18.89-18.82-28.33-28.24c-5.07-5.06-11.14-6.64-17.89-4.49c-12.32,3.92-15.74,18.63-6.51,28.24
			c7.97,8.29,16.25,16.28,24.38,24.4c7.55,7.54,15.1,15.07,22.63,22.63c5.13,5.14,5.7,9.94,1.71,13.9
			c-3.74,3.71-8.95,3.06-13.94-1.92c-25.13-25.08-50.23-50.17-75.32-75.28c-3.23-3.24-6.65-6.06-11.39-6.69
			c-7.7-1.02-14.59,2.46-17.91,9.06c-3.46,6.87-2.29,14.19,3.62,20.15c16.3,16.46,32.68,32.84,49.06,49.22
			c13.31,13.32,26.69,26.58,40,39.9c4.67,4.68,5.15,9.88,1.43,13.59c-3.73,3.73-8.96,3.24-13.62-1.41
			c-25.35-25.32-50.7-50.65-75.99-76.03c-4.64-4.66-9.91-7.4-16.57-6.08c-6.55,1.31-11.21,5.21-13.11,11.67
			c-1.87,6.35-0.63,12.27,4.14,17.08c10.21,10.3,20.49,20.52,30.74,30.77c17.32,17.32,34.62,34.68,52,51.94
			c2.97,2.94,4.63,6.14,3.46,10.27c-1.71,6.06-9.23,7.91-14.12,3.32c-5.71-5.36-11.13-11.03-16.67-16.57
			c-16.15-16.14-32.25-32.33-48.46-48.42c-7.52-7.47-17.52-7.95-24.62-1.46c-7.37,6.74-7.39,17.54,0.2,25.32
			c9.2,9.42,18.59,18.65,27.9,27.96c11.9,11.9,23.82,23.79,35.7,35.71c6.23,6.25,6.12,10.44-0.5,16.37
			c-40.73,36.41-84.5,68.7-131.22,96.99c-1.86,1.13-3.7,2.31-6.04,1.82c0-6.09,0-12.18,0-18.27c0.76-2.51,3.03-3.45,4.97-4.65
			c38.95-24.02,75.54-51.24,110.24-81.05c3.64-3.12,3.69-3.94,0.11-7.53c-17.66-17.7-35.31-35.39-53.04-53.02
			c-5.83-5.8-9.84-12.49-11.52-20.61c-3.2-15.49,4.92-32.04,19.48-38.35c3.88-1.68,3.85-2.91,2.14-6.4
			c-9.21-18.87-1.87-41.14,18.54-49.35c2.68-1.08,4.1-1.93,3.17-5.35c-4.31-15.9,1.76-31.75,14.62-39.81
			c12.25-7.68,31.5-7.26,43.22,3.87c2.63,2.5,4.85,7.07,8.1,6.86c3.49-0.22,3.88-5.58,6.03-8.46c10.79-14.48,33.39-17.81,49.08-7.03
			c3.03,2.08,5.77,4.5,8.36,7.12c3.96,4.01,7.93,8.01,12.4,12.36c1.29-4.53,1.47-8.68,1.62-12.65c0.74-18.84,0.39-37.61-4.59-56.05
			c-5.05-18.72-13.47-35.7-27.16-49.39c-13.9-13.9-30.89-23.27-50.01-28.06c-41.37-10.37-78.47-1.44-111.39,25.53
			c-14.26,11.68-25.32,25.94-34.3,41.9c-1.71,3.04-3.85,5.44-7.23,6.47C308.84,254.56,307.53,255.28,307,253.51z"/>
	</g>
	<path class="st2" d="M438,157c-4.33,1.61-8.67,1.68-13,0C429.33,157,433.67,157,438,157z"/>
	<path class="st3" d="M188,157c-4,1.6-8,1.59-12,0C180,157,184,157,188,157z"/>
	<path class="st4" d="M564,305c-1.64-3.67-1.63-7.33,0-11C564,297.67,564,301.33,564,305z"/>
	<path class="st5" d="M50,294c2.02,3.2,0.66,6.68,0.84,10.03c-0.3,0.4-0.58,0.41-0.84-0.03C50,300.67,50,297.33,50,294z"/>
	<path class="st6" d="M50,304c0.28,0.02,0.56,0.03,0.84,0.03c-0.15,2.01,1.12,4.21-0.84,5.97C50,308,50,306,50,304z"/>
</g>
</svg>
