<?xml version="1.0" encoding="utf-8"?>
<!-- Generator: Adobe Illustrator 23.0.3, SVG Export Plug-In . SVG Version: 6.00 Build 0)  -->
<svg version="1.1" id="Layer_1" xmlns="http://www.w3.org/2000/svg" xmlns:xlink="http://www.w3.org/1999/xlink" x="0px" y="0px"
	 viewBox="0 0 612 792" style="enable-background:new 0 0 612 792;" xml:space="preserve">
<style type="text/css">
	.st0{fill:#FEFEFE;}
	.st1{fill:#121212;}
	.st2{fill:#FEB601;}
	.st3{fill:#FDFDFD;}
	.st4{fill:#C3C3C3;}
	.st5{fill:#4D4D4D;}
	.st6{fill:#878787;}
</style>
<g>
	<path class="st0" d="M173,222c95,0,190,0.02,285-0.1c3.42,0,4.1,0.67,4.1,4.1c-0.13,64.67-0.1,129.33-0.1,194
		c-0.33,0.13-0.73,0.24-0.94,0.04c-14.27-12.77-32.16-19.7-48.08-29.8c-2.28-1.45-5.38-2.04-6.26-5.22
		c0.75-1.84,2.52-2.57,3.96-3.66c6.88-5.21,7.56-13.73,1.45-19.92c-5.12-5.18-11.91-7.82-18.06-11.39
		c-17.54-10.16-35.18-20.14-52.81-30.15c-13.06-7.42-22.47-2.56-23.85,12.36c-0.03,0.33-0.18,0.63-0.35,0.92
		c-0.92,0.6-1.96,0.58-2.84,0.11c-7.67-4.1-15.65-7.69-22.44-13.27c0.18-2.3,2.35-2.58,3.75-3.58c7.34-5.26,8.44-14.43,1.89-20.56
		c-5.86-5.48-12.99-9.4-20.47-12.04c-8.85-3.12-17.29,3.49-17.55,12.87c-0.03,1.15,0.31,2.32-0.28,3.42
		c-1.49,0.95-2.92,0.35-4.19-0.38c-6.42-3.66-12.93-7.18-19.2-11.09c-0.97-0.6-1.99-1.23-1.97-2.61c0.88-1.53,2.56-2.07,3.84-3.11
		c8.57-6.93,8.1-17.5-1.34-23.18c-10.12-6.08-20.46-11.79-30.73-17.62c-9.98-5.66-19.87-11.49-29.91-17.05
		C174.42,224.45,172.68,224.04,173,222z"/>
	<path class="st1" d="M316.76,333.53c-1.04-6.63,0.58-12.36,6.37-16.14c5.99-3.92,11.88-2.62,17.81,0.81
		c21.7,12.57,43.16,25.63,65.39,37.18c13.7,7.12,15.43,23,0.81,29.82c-3.09,4.55-8.36,5.9-12.77,8.36
		c-36.42,20.41-72.87,40.77-109.31,61.15c-29.33,16.4-58.69,32.75-87.99,49.21c-7.23,4-14.43,8.03-21.67,12.02
		c-5.17,2.85-10.37,3.01-15.7,0.67c-4.23-1.86-6.7-5.15-7.7-9.61c0-17.67,0-35.33,0-53c1.08-3.56,0.45-7.21,0.48-10.81
		c0.1-12.75,0.04-25.49,0.04-38.24c0-15.96,0-31.92,0-47.88c0-16.23,0-32.46,0-48.69c0-22.99,0-45.99,0-68.99
		c0-1.33-0.07-2.67,0.03-4c0.64-8.12,3.35-11.28,11.45-13.4c3,0,6,0,9,0c20.74,11.94,41.42,23.98,62.24,35.76
		c5.99,3.39,9.99,7.75,9.61,14.89c-0.37,6.87-4.43,11.18-10.66,13.62c-3.2,3.42-6.79,1.83-10.1,0.48
		c-5.84-2.39-10.97-6.16-16.6-8.98c-5.71-3.1-11.29-6.44-16.98-9.57c-1.67-0.92-3.35-3.09-5.27-1.95c-1.65,0.98-0.72,3.39-0.72,5.15
		c-0.04,36.97,0.56,73.96-0.22,110.92c-0.6,28.3-0.68,56.59-0.81,84.89c-0.01,1.17,0.01,2.33,0.01,3.5
		c-0.01,2.52,1.18,2.76,3.18,1.78c2.99-1.47,5.77-3.34,8.74-4.82c13.24-6.62,25.93-14.25,38.86-21.45
		c30.08-16.74,60.1-33.59,90.17-50.35c13.95-7.77,27.8-15.71,41.82-23.35c3.96-2.16,1.83-3.19-0.42-4.47
		c-13.29-7.58-26.57-15.2-39.85-22.79C321.39,342.64,316.7,339.92,316.76,333.53z"/>
	<path class="st2" d="M196.99,502.69c25.19-14.18,50.35-28.4,75.58-42.51c44.09-24.68,88.22-49.3,132.34-73.93
		c0.72-0.4,1.49-0.7,2.23-1.05c14.47,8.34,28.89,16.77,43.44,24.98c4.51,2.55,8.57,5.44,11.43,9.82c0,3.67,0,7.33,0,11
		c-1.1,4.55-4.2,7.27-8.15,9.46c-43.79,24.27-87.45,48.79-131.17,73.17c-32.4,18.07-64.81,36.1-97.07,54.4
		c-3.06,1.74-6.33,2.83-9.61,3.97c-2.67,0-5.33,0-8,0c-9.18-2.4-12.46-6.58-12.51-16.34c-0.08-15.44-0.03-30.87-0.02-46.31
		C195.47,507.02,195.42,504.67,196.99,502.69z"/>
	<path class="st0" d="M216,572c63.23-35.36,126.45-70.72,189.68-106.07c15.24-8.52,30.42-17.13,45.74-25.5
		c4.34-2.37,8.01-5.21,10.57-9.43c0,45.61-0.06,91.22,0.11,136.82c0.01,3.79-1.01,4.26-4.43,4.26C377.13,571.98,296.56,572,216,572z
		"/>
	<path class="st0" d="M196.99,502.69c0,16.79,0.41,33.6-0.15,50.37c-0.3,9.16,2.77,15.37,11.16,18.93c-17.67,0-35.33-0.06-53,0.07
		c-2.5,0.02-3.08-0.57-3.07-3.07c0.12-20.67,0.07-41.33,0.07-62c2.32,2.67,3.74,6.11,7.1,7.91c5.47,2.94,10.77,2.7,16.12-0.28
		C182.45,510.61,189.73,506.67,196.99,502.69z"/>
	<path class="st3" d="M164,222c-8.14,3.57-11.05,9.82-10.95,18.62c0.26,22.44-0.09,44.89-0.2,67.33c-0.25,0.51-0.53,0.5-0.84,0.05
		c0-27.53,0.07-55.05-0.1-82.58c-0.02-3.14,0.83-3.75,3.65-3.48C158.34,222.21,161.18,222,164,222z"/>
	<path class="st4" d="M152,308c0.28-0.09,0.56-0.11,0.84-0.05c-0.01,16.32-0.02,32.64-0.03,48.97c-0.22,0.54-0.49,0.54-0.82,0.09
		C152,340.67,152,324.33,152,308z"/>
	<path class="st5" d="M152.91,404.92c0.03,15.14,0.07,30.29,0.08,45.43c0,1.27,0.39,2.71-0.98,3.64c0-16.33,0-32.67,0-49
		C152.27,404.57,152.57,404.55,152.91,404.92z"/>
	<path class="st6" d="M152.91,404.92c-0.3,0.06-0.6,0.08-0.91,0.08c0-16,0-32,0-48c0.26-0.12,0.53-0.15,0.82-0.09
		C152.85,372.92,152.88,388.92,152.91,404.92z"/>
	<path class="st2" d="M316.76,333.53c1.52,4.7,4.71,7.81,8.97,10.21c14.06,7.91,28.02,15.99,42.02,24.01
		c1.43,0.82,2.83,1.67,4.68,2.76c-18.14,10.13-35.86,20.01-53.55,29.91c-39.49,22.09-78.97,44.19-118.46,66.27
		c-1,0.56-2.1,0.91-3.16,1.36c-2.28-1.93-1.84-4.53-1.48-6.95c0.63-4.3,0.64-8.62,0.64-12.94c0-50.22,0.01-100.44-0.02-150.66
		c0-4.87,0.2-9.67,2.75-14.01c2.21-3.78,5.06-6.61,9.9-6.28c4.15,2.28,8.35,4.49,12.45,6.87c3.99,2.32,8.14,3.35,12.7,2.2
		c8.14,4.64,16.27,9.27,24.41,13.91c4.34,6.37,10.88,9.85,17.28,13.71c5.13,3.1,10.67,4.38,16.28,5.79
		C300.36,324.29,308.56,328.91,316.76,333.53z"/>
	<path class="st1" d="M292.16,319.68c-4.96,0.91-9.41-0.33-13.64-2.97c-3.63-2.27-7.33-4.43-11.14-6.39
		c-4.34-2.23-7.35-5.47-8.78-10.14c-1.25-6.48,0.52-11.98,5.95-15.76c5.62-3.91,11.51-3.42,17.29,0.03c3.7,2.21,7.4,4.42,11.22,6.41
		c6.04,3.15,10.09,7.63,9.89,14.78C302.75,312.81,298.5,317.11,292.16,319.68z"/>
	<path class="st0" d="M209.04,277.2c-7.74,3.09-10.97,8.78-10.95,17.1c0.06,37.78-0.09,75.57-0.26,113.35
		c-0.09,20.13-0.38,40.26-0.57,60.38c-4.81,2.84-9.61,5.69-14.67,8.68c0-71.62,0-142.7,0-215.01
		C192.04,267.25,200.54,272.23,209.04,277.2z"/>
</g>
</svg>
