<?xml version="1.0" encoding="utf-8"?>
<!-- Generator: Adobe Illustrator 23.0.3, SVG Export Plug-In . SVG Version: 6.00 Build 0)  -->
<svg version="1.1" id="Layer_1" xmlns="http://www.w3.org/2000/svg" xmlns:xlink="http://www.w3.org/1999/xlink" x="0px" y="0px"
	 viewBox="0 0 612 792" style="enable-background:new 0 0 612 792;" xml:space="preserve">
<style type="text/css">
	.st0{fill:#FEFEFE;}
	.st1{fill:#101010;}
	.st2{fill:#4B4B4B;}
	.st3{fill:#373737;}
	.st4{fill:#3E3E3E;}
	.st5{fill:#939393;}
	.st6{fill:#717171;}
	.st7{fill:#575757;}
	.st8{fill:#7B7B7B;}
	.st9{fill:#5A5A5A;}
	.st10{fill:#5C5C5C;}
	.st11{fill:#747474;}
</style>
<g>
	<path class="st0" d="M563,259c0,129.83-0.02,259.67,0.09,389.5c0,3.75-0.84,4.6-4.59,4.59C443.33,652.98,328.17,653,213,653
		c0.52-2.88,2.93-2.1,4.69-2.28c21.29-2.23,42.17-6.21,62.05-14.44c15.67-6.49,29.77-15.47,42.49-26.75
		c13.14-11.65,23.85-25.07,31.07-41.1c11.24-24.94,12.3-50.42,3.74-76.4c-5.03-15.27-14.34-27.57-25.28-39.05
		c-13.85-14.54-30.28-26.05-45.07-39.45c-9.3-8.43-16.9-17.94-16.05-31.77c0.43-6.94,2.89-12.97,6.81-18.47
		c6.11-8.59,13.41-16.09,21.45-22.91c21.19-17.94,36.29-39.63,39.24-67.9c3.73-35.77-4.27-68.17-29.88-94.84
		c-3.24-3.37-7.09-6.04-10.81-8.85c-1.16-0.87-2.85-1.74-2.33-3.46c0.52-1.72,2.41-1.56,3.85-1.58c10.49-0.15,20.99-0.16,31.48-0.01
		c4.18,0.06,7.76-1.02,11.31-3.16c9.41-5.67,19.04-10.99,28.39-16.76c2.18-1.34,4.61-1.79,6.85-2.84c22.67,0,45.33,0,68,0
		c1.83,2.09,1.59,4.66,1.6,7.13c0.03,21.48,0.06,42.96,0,64.44c-0.02,7.9-1.1,8.99-8.93,9.02c-20.81,0.07-41.63,0-62.44,0.04
		c-7.29,0.01-7.57,0.31-7.6,7.59c-0.03,7.16-0.04,14.32,0,21.48c0.04,6.38,0.3,6.66,6.86,6.67c19.98,0.04,39.96,0.01,59.94,0.01
		c1.5,0,3-0.02,4.5,0.02c6.45,0.19,7.61,1.22,7.64,7.66c0.11,20.31,0.03,40.63,0.04,60.94c0,1.67,0.12,3.34-0.01,4.99
		c-0.32,4.21,1.76,5.49,5.69,5.42c7.99-0.15,15.98,0.02,23.98-0.07c5.42-0.06,6.05-0.66,6.07-6.08c0.08-20.31,0.02-40.63,0.03-60.94
		c0.01-11.71,0.24-11.94,12.04-11.95c20.15-0.01,40.3-0.02,60.44,0.02C557.66,257.41,560.59,256.95,563,259z"/>
	<path d="M377,141c-12.72,8.44-26.24,15.54-39.28,23.46c-1.71,1.04-3.54,0.78-5.35,0.78c-11.99,0.02-23.98,0.01-35.95,0.01
		c-0.46,1.18,0.41,1.46,1.07,1.93c24.17,17.08,36.6,41.35,41.35,69.74c4.25,25.45,1.13,50.04-11.71,72.97
		c-7.14,12.76-17.76,22.38-28.21,32.15c-7.07,6.61-14.07,13.25-19.83,21.08c-10.24,13.92-9.88,28.15,1.03,41.58
		c7.43,9.14,16.85,16.08,25.93,23.37c12.36,9.93,24.36,20.23,34.48,32.51c27.69,33.61,31.42,81.15,8.78,118.48
		c-21.13,34.83-52.79,55.45-91.56,65.96c-14.01,3.8-28.29,6.09-42.78,7.01c-0.79,0.05-1.7-0.14-1.96,0.97c-1.33,0-2.67,0-4,0
		c-0.64-0.69-1.48-0.46-2.27-0.52c-0.61,0-1.22,0-1.83,0c-0.98,0.12-2.06-0.33-2.9,0.52c-6,0-12,0-18,0
		c-0.85-0.85-1.93-0.39-2.91-0.52c-0.61,0-1.22,0-1.83,0c-0.78,0.05-1.63-0.17-2.26,0.52c-1.67,0-3.33,0-5,0
		c-11.7-1.26-23.42-2.23-34.8-5.58c-19.1-5.61-37.59-12.45-53.8-24.45c-13.8-10.21-23.37-23.46-29.41-39.44
		c-1.91-5.04-1.87-10.38-2.99-15.53c0-5,0-10,0-15c1.05-1.66,0.28-3.5,0.52-5.24c-0.2-11.73,4.37-22.17,9.39-32.31
		c10.14-20.5,26.64-34.67,46.58-45.15c25.29-13.3,52.75-19.31,80.68-23.57c11.51-1.75,23.07-3.32,34.78-3.11
		c1.26,0.02,2.96,0.41,3.57-1.05c0.58-1.41-0.88-2.38-1.61-3.44c-4.56-6.61-8.55-13.52-11.48-21.01
		c-4.71-12.08-5.61-24.25-0.57-36.5c0.51-1.23,0.82-2.54,1.3-3.78c1.08-2.75,0.57-3.79-2.75-3.7c-8.28,0.21-16.48,1.08-24.88,0.43
		c-23.5-1.81-44.46-9.6-62.99-24.03c-22.5-17.52-36.33-40.35-39.46-68.73c-3.27-29.66,3.03-57.3,20.77-81.87
		c26.57-36.8,62.96-55.23,107.83-58.03c3.09-0.19,6.29,0.15,9.31-0.91c1,0,2,0,3,0c0.6,0.66,1.4,0.48,2.14,0.52
		c0.57,0,1.15,0,1.72,0c0.74-0.04,1.54,0.14,2.14-0.52c1.33,0,2.67,0,4,0c2,0.82,4,0.82,6,0C286.33,141,331.67,141,377,141z"/>
	<path class="st0" d="M222,141c-6.05,2.35-12.53,2.05-18.8,2.93c-26.16,3.68-50.45,11.88-71.07,28.96
		c-24.8,20.54-41.62,45.81-46.42,78.33c-8.11,54.87,25.64,105.26,79.75,118.71c15.87,3.94,31.91,4.46,48.08,2.59
		c0.83-0.1,1.65-0.26,2.48-0.3c0.29-0.02,0.6,0.21,1.76,0.66c-14.59,26.61-4.22,49.25,12.49,71.29c-8.87,0.64-17.13,1-25.33,1.86
		c-31.21,3.25-61.88,9.09-90.59,22.25c-32.44,14.87-54.12,39.04-61.79,74.61c-0.35,1.62-0.47,3.29-0.69,4.93
		c-0.17,0.59-0.46,0.65-0.86,0.19c0-134.17,0.02-268.33-0.09-402.5c0-3.75,0.84-4.61,4.59-4.6C111,141.04,166.5,141,222,141z"/>
	<path d="M563,259c-24.66,0.03-49.33,0.15-73.99,0c-3.87-0.02-5,0.88-4.96,4.89c0.21,23.16,0.01,46.33,0.19,69.49
		c0.03,3.66-0.73,4.8-4.58,4.68c-10.16-0.31-20.33-0.27-30.49-0.01c-3.55,0.09-4.36-0.93-4.34-4.4c0.16-23.33-0.01-46.66,0.18-69.99
		c0.03-3.75-0.91-4.69-4.66-4.66c-23.33,0.19-46.66,0.02-69.99,0.18c-3.45,0.02-4.49-0.77-4.4-4.33
		c0.26-10.33,0.24-20.67,0.01-30.99c-0.07-3.34,0.95-4.09,4.15-4.07c23.33,0.13,46.66-0.03,69.99,0.17c3.99,0.03,4.92-1.07,4.9-4.95
		c-0.15-24.66-0.03-49.33,0-73.99c13,0,26,0,39,0c2.05,2.41,1.59,5.35,1.59,8.13c0.04,20.66,0.01,41.31,0.03,61.97
		c0.01,7.08,0.2,7.27,7.27,7.27c20.66,0.02,41.31-0.01,61.97,0.03c2.79,0.01,5.72-0.45,8.13,1.59C563,233,563,246,563,259z"/>
	<path class="st0" d="M563,220c-24.59-0.05-49.18-0.21-73.77-0.05c-4.13,0.03-5.21-1.04-5.18-5.18c0.16-24.59,0-49.18-0.05-73.77
		c25.33,0,50.67,0.04,76-0.07c2.5-0.01,3.08,0.56,3.07,3.07C562.96,169.33,563,194.67,563,220z"/>
	<path class="st0" d="M51,568c2.01,2.8,1.6,6.26,2.48,9.37c6.22,22.12,19.69,38.58,39.22,50.24c23.39,13.98,48.99,21.12,75.87,24.23
		c1.16,0.13,2.77-0.61,3.43,1.16c-39.07,0-78.14-0.04-117.22,0.07c-3.01,0.01-3.89-0.54-3.88-3.77C51.07,622.2,51,595.1,51,568z"/>
	<path class="st1" d="M241,141c-2,1.51-4,1.52-6,0C237,141,239,141,241,141z"/>
	<path class="st2" d="M51,548c0.26-0.19,0.54-0.25,0.86-0.19c0.39,1.84,0.6,3.65-0.86,5.19C51,551.33,51,549.67,51,548z"/>
	<path class="st3" d="M180.94,652.09c1.13-0.07,2.31-0.32,3.06,0.91c-1,0-2,0-3,0c-0.31-0.18-0.43-0.38-0.34-0.59
		C180.75,652.2,180.85,652.09,180.94,652.09z"/>
	<path class="st4" d="M202,653c0.76-1.22,1.92-1.01,3.06-0.87c0.28,0.21,0.37,0.41,0.26,0.6c-0.11,0.18-0.21,0.27-0.32,0.27
		C204,653,203,653,202,653z"/>
	<path class="st5" d="M226.95,141.84c-0.82,0.11-1.72,0.41-1.95-0.84c0.67,0,1.33,0,2,0c0.34,0.21,0.44,0.4,0.32,0.58
		C227.19,141.75,227.07,141.84,226.95,141.84z"/>
	<path class="st6" d="M226.95,141.84c0.02-0.28,0.04-0.56,0.05-0.84c0.67,0,1.33,0,2,0c0.34,0.2,0.44,0.39,0.31,0.57
		c-0.12,0.17-0.24,0.25-0.37,0.25C228.28,141.83,227.62,141.83,226.95,141.84z"/>
	<path class="st7" d="M228.95,141.82c0.02-0.27,0.04-0.55,0.05-0.82c0.67,0,1.33,0,2,0C230.6,141.99,229.81,141.99,228.95,141.82z"
		/>
	<path class="st8" d="M177,653c0.27-1.16,1.14-0.94,1.95-0.85c0.36,0.17,0.49,0.35,0.38,0.55c-0.11,0.2-0.22,0.31-0.33,0.31
		C178.33,653,177.67,653,177,653z"/>
	<path class="st9" d="M179,653c0-0.29-0.01-0.57-0.05-0.85c0.67-0.02,1.33-0.03,2-0.05c0.04,0.3,0.06,0.6,0.05,0.91
		C180.33,653,179.67,653,179,653z"/>
	<path class="st10" d="M205,653c0-0.29,0.02-0.58,0.06-0.87c0.66,0.01,1.32,0.01,1.98,0.02c0.3,0.2,0.39,0.4,0.28,0.58
		c-0.11,0.18-0.21,0.27-0.32,0.27C206.33,653,205.67,653,205,653z"/>
	<path class="st11" d="M207,653c0-0.28,0.01-0.57,0.04-0.85c0.83-0.12,1.68-0.29,1.96,0.85C208.33,653,207.67,653,207,653z"/>
	<path class="st0" d="M223.94,624.71c-28.12-0.39-54.32-6.28-78.51-19.82c-33.2-18.58-46.71-57.52-31.55-90.33
		c8.12-17.57,22.05-28.83,39.38-36.35c29.62-12.85,60.77-16.47,92.73-15.05c1.71,0.08,3.2,0.53,4.63,1.53
		c13.81,9.57,27.73,18.96,40.38,30.12c8.21,7.24,15.26,15.42,20.71,24.81c15.57,26.82,12.05,70-23.09,89.47
		C268.29,620.36,246.32,624.47,223.94,624.71z"/>
	<path class="st0" d="M283.66,286.47c-0.24,12.87-1.66,25.49-6.55,37.6c-8.07,19.96-23.19,29.53-44.2,30.92
		c-24.75,1.63-44.23-8.79-58.82-27.73c-23.22-30.15-34.83-64.41-31.97-102.81c1.2-16.14,7.14-30.69,17.57-43.18
		c18.35-21.99,54.05-24.38,78.59-5.44c12.68,9.79,21.62,22.32,28.07,36.91C277.09,237.05,283.57,263.97,283.66,286.47z"/>
</g>
</svg>
