<?xml version="1.0" encoding="utf-8"?>
<!-- Generator: Adobe Illustrator 23.0.3, SVG Export Plug-In . SVG Version: 6.00 Build 0)  -->
<svg version="1.1" id="Layer_1" xmlns="http://www.w3.org/2000/svg" xmlns:xlink="http://www.w3.org/1999/xlink" x="0px" y="0px"
	 viewBox="0 0 612 792" style="enable-background:new 0 0 612 792;" xml:space="preserve">
<style type="text/css">
	.st0{fill:#FEFEFE;}
	.st1{fill:#0F0F0F;}
	.st2{fill:#3A3A3A;}
	.st3{fill:#595959;}
	.st4{fill:#707070;}
	.st5{fill:#9D9D9D;}
	.st6{fill:#5A5A5A;}
	.st7{fill:#4B4B4B;}
	.st8{fill:#868686;}
	.st9{fill:#B4B4B4;}
	.st10{fill:#7E7E7E;}
	.st11{fill:#989898;}
	.st12{fill:#757575;}
	.st13{fill:#919191;}
</style>
<g>
	<path d="M613,395c0,1.33,0,2.67,0,4c-1.31,9.87-0.65,19.86-1.64,29.75c-3.67,36.6-9.74,72.62-25.81,106.21
		c-19.48,40.7-51.58,66.15-94.67,78.21c-18.65,5.22-37.62,8.5-57.07,8.98c-4.57,0.11-9.27-0.36-13.8,0.86c-1,0-2,0-3,0
		c-0.6-0.66-1.4-0.48-2.14-0.52c-0.57,0-1.15,0-1.72,0c-0.74,0.04-1.54-0.14-2.14,0.52c-1.67,0-3.33,0-5,0
		c-1.71-1.94-1.54-4.33-1.54-6.65c-0.03-35.14-0.04-70.29,0.01-105.43c0.01-7.17,1.05-8.28,8.12-9.38
		c7.57-1.17,15.2-1.78,22.74-3.28c18.47-3.68,31.04-14.64,38.87-31.32c7.16-15.26,10.12-31.69,12.08-48.27
		c1.27-10.74,2.42-21.5,2.2-32.36c-0.13-6.47-0.24-6.74-6.75-6.74c-42.31-0.03-84.61-0.01-126.92-0.01
		c-12.35,0-12.35-0.01-12.35-12.53c0-62.29-0.01-124.58,0.03-186.88c0-3.1-0.69-6.39,1.53-9.15c88.33,0,176.67,0.03,265-0.1
		c3.42,0,4.1,0.67,4.1,4.1c-0.13,63-0.1,126-0.1,189c-0.82,2.33-0.82,4.67,0,7c0,2,0,4,0,6c-0.89,0.94-0.37,2.12-0.52,3.18
		c0,0.68,0,1.36,0,2.05c0,0.92,0,1.85,0,2.77c0,0.93,0,1.86,0,2.78c0,0.69,0,1.37,0,2.06c0,0.9,0,1.79,0,2.69
		C612.56,393.37,612.25,394.3,613,395z"/>
	<path d="M68,623c-1.67,0-3.33,0-5,0c-1.7-1.94-1.51-4.34-1.51-6.65c-0.02-35.15-0.04-70.31,0.01-105.46
		c0.01-7.17,1.14-8.35,8.16-9.29c7.26-0.97,14.56-1.64,21.78-2.92c20.85-3.71,34.71-15.81,42.85-35.03
		c6.44-15.21,9.2-31.29,11.07-47.54c1.14-9.91,2.28-19.85,2.11-29.87c-0.11-6.36-0.38-6.71-6.88-6.71
		c-43.65-0.02-87.3,0-130.95-0.04c-2.94,0-6.05,0.62-8.65-1.5c0-67.67,0.03-135.33-0.1-203c-0.01-3.42,0.67-4.1,4.1-4.1
		c88.33,0.12,176.67,0.1,265,0.1c1.59,1.79,1.45,4.01,1.45,6.16c0.02,67.78,0.6,135.56-0.23,203.33
		c-0.44,35.93-3.49,71.8-11.89,106.97c-6.08,25.47-14.98,49.68-30.25,71.27c-17.78,25.14-41.9,41.59-70.68,51.45
		c-21.38,7.32-43.41,11.35-66.08,11.95c-4.75,0.13-9.6-0.27-14.32,0.87c-1,0-2,0-3,0c-0.64-0.69-1.48-0.46-2.27-0.52
		c-0.61,0-1.22,0-1.83,0C69.93,622.6,68.85,622.15,68,623z"/>
	<path class="st0" d="M78,623c5.47-2.07,11.28-1.41,16.92-1.93c24.44-2.21,48.5-6.16,71.41-15.38
		c42.51-17.11,68.97-48.95,83.71-91.5c9.65-27.85,14.24-56.69,16.98-85.91c3.06-32.73,2.97-65.54,2.94-98.36
		C269.9,276.95,269.98,223.98,270,171c24.67,0,49.33,0,74,0c0.02,67.12,0.11,134.23-0.06,201.35c-0.01,4.92,1.27,5.86,5.97,5.84
		c45.13-0.2,90.27-0.04,135.4-0.24c4.63-0.02,5.31,1.25,5.13,5.53c-1.02,23.48-2.63,46.86-9.42,69.54
		c-1.42,4.76-3.19,9.44-5.19,13.99c-8.88,20.19-24.61,31.18-46.3,33.98c-6.76,0.88-13.51,1.87-20.3,2.54
		c-2.79,0.28-3.38,1.4-3.37,4.05c0.11,38.47,0.1,76.94,0.13,115.41C296.67,623,187.33,623,78,623z"/>
	<path class="st0" d="M1,378c47.66,0.03,95.31,0.11,142.97-0.02c4.27-0.01,5.54,0.75,5.35,5.36c-1,24.51-2.75,48.91-10.45,72.4
		c-9.92,30.27-27.48,43.81-59.2,46.25c-1.82,0.14-3.64,0.42-5.45,0.66c-3.62,0.49-8.58-0.26-10.52,1.81
		c-2.44,2.61-0.77,7.61-0.77,11.56C62.9,551.68,62.96,587.34,63,623c-19.14,0-38.27-0.1-57.41,0.09c-3.56,0.03-4.71-0.51-4.7-4.48
		C1.04,538.41,1,458.2,1,378z"/>
	<path class="st0" d="M420,623c5.66-1.93,11.61-1.44,17.43-1.96c24.45-2.21,48.49-6.21,71.42-15.39
		c41.64-16.67,68-47.61,83.06-89.06c10.3-28.36,15.24-57.83,18.05-87.72c0.87-9.28,1.36-18.6,2.03-27.91
		c0.06-0.8-0.09-1.7,1.01-1.95c0,73.33-0.03,146.67,0.1,220c0.01,3.42-0.67,4.1-4.1,4.1C546,622.96,483,623,420,623z"/>
	<path class="st1" d="M613,371c-1.58-2.33-1.57-4.67,0-7C613,366.33,613,368.67,613,371z"/>
	<path class="st2" d="M612.1,380.03c-0.06-1.12-0.36-2.31,0.9-3.03c0,1,0,2,0,3C612.71,380.44,612.41,380.45,612.1,380.03z"/>
	<path class="st3" d="M612.17,385.04c-0.01-1-0.02-2.01-0.03-3.01c0.27-0.47,0.55-0.5,0.86-0.03c0,1,0,2,0,3
		C612.74,385.43,612.47,385.44,612.17,385.04z"/>
	<path class="st4" d="M612.17,385.04c0.28,0,0.55-0.02,0.83-0.04c0,1,0,2,0,3c-0.27,0.43-0.56,0.46-0.86,0.03
		C612.15,387.03,612.16,386.04,612.17,385.04z"/>
	<path class="st5" d="M612.16,393.02c0-1,0.01-2,0.01-2.99c0.26-0.48,0.54-0.49,0.83-0.03c0,1,0,2,0,3
		C612.73,393.45,612.45,393.44,612.16,393.02z"/>
	<path class="st6" d="M68,623c0.73-1.3,1.92-1,3.05-0.86c0.29,0.21,0.37,0.41,0.26,0.59C71.21,622.91,71.1,623,71,623
		C70,623,69,623,68,623z"/>
	<path class="st7" d="M613,382c-0.29,0-0.57,0.01-0.86,0.03c-0.02-0.67-0.03-1.33-0.05-2c0.3-0.02,0.6-0.03,0.91-0.03
		C613,380.67,613,381.33,613,382z"/>
	<path class="st8" d="M613,390c-0.28,0.01-0.55,0.02-0.83,0.03c-0.01-0.67-0.02-1.33-0.03-2c0.29-0.02,0.58-0.03,0.86-0.03
		C613,388.67,613,389.33,613,390z"/>
	<path class="st9" d="M612.16,393.02c0.28-0.01,0.56-0.01,0.84-0.02c0,0.67,0,1.33,0,2C611.7,394.77,612.02,393.86,612.16,393.02z"
		/>
	<path class="st10" d="M71,623c0-0.29,0.01-0.57,0.05-0.86c0.66,0.01,1.32,0.01,1.98,0.02c0.3,0.2,0.39,0.39,0.29,0.57
		C73.21,622.91,73.11,623,73,623C72.33,623,71.67,623,71,623z"/>
	<path class="st11" d="M73,623c0-0.28,0.01-0.56,0.03-0.84c0.83-0.13,1.73-0.43,1.97,0.84C74.33,623,73.67,623,73,623z"/>
	<path class="st3" d="M411,623c0.4-0.96,1.18-1.01,2.05-0.84c0.29,0.2,0.38,0.4,0.27,0.58c-0.11,0.18-0.21,0.26-0.32,0.26
		C412.33,623,411.67,623,411,623z"/>
	<path class="st12" d="M413,623c0.01-0.28,0.02-0.56,0.05-0.84c0.66,0,1.33,0,1.99,0c0.3,0.2,0.39,0.39,0.28,0.57
		c-0.11,0.18-0.21,0.27-0.32,0.27C414.33,623,413.67,623,413,623z"/>
	<path class="st13" d="M415,623c0-0.28,0.01-0.56,0.04-0.84c0.83-0.13,1.73-0.42,1.96,0.84C416.33,623,415.67,623,415,623z"/>
</g>
</svg>
